<svg width="120" height="90" viewBox="0 0 120 90" xmlns="http://www.w3.org/2000/svg"><title>icon-mail</title><g fill="#FFF" fill-rule="evenodd"><path d="M64.62 47.926a2.6 2.6 0 0 0 .453-.614l9.712 8.64a2.584 2.584 0 0 0 3.401.037l9.898-8.44c.09.133.191.26.308.377l22.742 22.855H41.878L64.62 47.926zm50.186 19.164L92.064 44.235c-.014-.015-.03-.027-.045-.041l17.097-14.578a2.619 2.619 0 0 0 .3-3.678 2.588 2.588 0 0 0-3.66-.302l-29.214 24.91L42.46 20.22h72.347v46.87zm3.104 8.86a2.87 2.87 0 0 0 .133-.033c.038-.01.076-.018.113-.029.043-.013.086-.03.128-.045.037-.013.075-.026.112-.041.04-.017.078-.037.117-.055.038-.018.076-.035.113-.055.037-.02.072-.042.108-.064.037-.022.075-.043.11-.067.04-.026.075-.055.112-.083.031-.023.063-.045.093-.07.056-.046.11-.096.162-.146.009-.01.019-.017.028-.026l.028-.031c.05-.052.098-.104.144-.16l.075-.1c.025-.035.052-.07.076-.105.026-.039.048-.079.072-.119l.059-.1c.021-.04.04-.082.058-.122.017-.037.035-.072.051-.11.017-.04.03-.08.044-.121.014-.04.03-.08.042-.12.012-.04.021-.082.032-.124.01-.041.021-.081.03-.123.01-.049.015-.098.022-.148.005-.035.011-.069.015-.104.008-.087.013-.173.013-.26v-55.78A2.603 2.603 0 0 0 117.403 15H35.61c-.023 0-.045.003-.068.003a2.611 2.611 0 0 0-.643.099 2.663 2.663 0 0 0-.473.187 2.568 2.568 0 0 0-.711.54c-.017.018-.034.033-.05.051l-.025.032a2.572 2.572 0 0 0-.094.118c-.022.03-.045.058-.065.088a2.687 2.687 0 0 0-.077.12c-.02.033-.042.065-.06.1-.022.038-.041.078-.061.118-.018.037-.037.073-.053.11-.017.04-.032.08-.047.12-.015.04-.03.079-.043.118-.013.04-.023.081-.034.122-.011.042-.023.083-.032.125-.009.04-.015.08-.022.12-.007.044-.015.09-.02.135-.005.037-.007.076-.01.114a2.577 2.577 0 0 0-.007.146l-.002.043v16.093a2.603 2.603 0 0 0 2.596 2.61 2.603 2.603 0 0 0 2.597-2.61V23.405l23.086 20.542c-.12.085-.236.18-.344.287L38.206 67.09V49.94a2.603 2.603 0 0 0-2.597-2.61 2.603 2.603 0 0 0-2.597 2.61v3.189H19.597A2.603 2.603 0 0 0 17 55.739a2.603 2.603 0 0 0 2.597 2.61h13.415V73.39A2.603 2.603 0 0 0 35.61 76h81.794c.085 0 .17-.005.256-.013.04-.004.078-.011.117-.017.045-.006.09-.011.134-.02z"/><path d="M2.594 44h43.812C47.839 44 49 42.881 49 41.5S47.839 39 46.406 39H2.594C1.161 39 0 40.119 0 41.5S1.161 44 2.594 44m5.015-14H27.39c1.442 0 2.61-1.119 2.61-2.5S28.832 25 27.391 25H7.61C6.168 25 5 26.119 5 27.5S6.168 30 7.609 30m13.82 34H2.57C1.151 64 0 65.119 0 66.5S1.151 69 2.571 69H21.43c1.419 0 2.57-1.119 2.57-2.5S22.849 64 21.429 64"/></g></svg>