<svg width="120" height="90" viewBox="0 0 120 90" xmlns="http://www.w3.org/2000/svg"><title>icon-telephone</title><g fill="#FFF"><path d="M26.227 38h6.359c4.719 0 9.046-2.81 11.024-7.155l.046-.103c.766-1.682 2.44-2.768 4.266-2.768h25.157c1.825 0 3.5 1.086 4.266 2.77l.045.099C79.368 35.19 83.695 38 88.414 38h6.36c3.402 0 6.57-1.709 8.474-4.571a10.496 10.496 0 0 0 1.009-9.686l-2.896-7.291C99.081 10.71 93.666 7 87.566 7H47.82c-1.141 0-2.067.94-2.067 2.098 0 1.159.926 2.098 2.067 2.098h39.745c4.405 0 8.314 2.679 9.961 6.825l2.896 7.291a6.17 6.17 0 0 1-.601 5.77c-1.151 1.73-2.991 2.722-5.048 2.722h-6.359c-3.112 0-5.966-1.853-7.272-4.722l-.045-.098c-1.439-3.163-4.586-5.206-8.019-5.206H47.921c-3.432 0-6.58 2.043-8.018 5.204l-.046.102c-1.305 2.868-4.16 4.72-7.271 4.72h-6.36c-2.056 0-3.896-.992-5.047-2.722a6.171 6.171 0 0 1-.601-5.77l2.896-7.29c1.646-4.147 5.556-6.825 9.96-6.825h.087c1.142 0 2.068-.94 2.068-2.098 0-1.16-.926-2.098-2.068-2.098h-.087c-6.1 0-11.514 3.71-13.795 9.451l-2.896 7.292a10.496 10.496 0 0 0 1.009 9.686c1.904 2.86 5.072 4.57 8.475 4.57z"/><path d="M110.609 67.353l-5.614-22.796c-.27-1.09-1.382-1.759-2.49-1.494-1.106.265-1.785 1.362-1.517 2.451l5.615 22.796a9.248 9.248 0 0 1-1.775 8.037c-1.824 2.284-4.562 3.594-7.512 3.594H22.683c-2.95 0-5.688-1.31-7.512-3.594a9.248 9.248 0 0 1-1.775-8.037l5.233-21.244h18.09c6.576 0 12.036-4.786 12.98-11.007h20.6c.945 6.22 6.406 11.007 12.98 11.007 1.138 0 2.06-.91 2.06-2.03 0-1.121-.922-2.03-2.06-2.03-4.964 0-9.002-3.977-9.002-8.866v-.11c0-1.121-.923-2.03-2.061-2.03H47.783c-1.139 0-2.061.909-2.061 2.03v.11c0 4.889-4.039 8.866-9.002 8.866H17.008c-.951 0-1.779.641-2.003 1.551L9.391 67.353c-.995 4.041-.07 8.234 2.54 11.503C14.543 82.125 18.462 84 22.685 84h74.633c4.222 0 8.141-1.875 10.751-5.144 2.61-3.269 3.536-7.462 2.541-11.503z"/><path d="M46.028 50A2.04 2.04 0 0 0 44 52.051V74.95A2.04 2.04 0 0 0 46.028 77h27.944A2.04 2.04 0 0 0 76 74.949V52.05A2.04 2.04 0 0 0 73.972 50H46.028zm11.343 15.265v-3.53h5.258v3.53h-5.258zm5.258 4.103v3.53h-5.258v-3.53h5.258zm-14.573-7.633h5.259v3.53h-5.259v-3.53zm9.315-4.102v-3.53h5.258v3.53h-5.258zm9.314 4.102h5.259v3.53h-5.259v-3.53zm5.259-4.102h-5.259v-3.53h5.259v3.53zm-18.63-3.53v3.53h-5.258v-3.53h5.259zm-5.258 15.265h5.259v3.53h-5.259v-3.53zm18.63 3.53v-3.53h5.258v3.53h-5.259z"/></g></svg>