<svg width="120" height="90" viewBox="0 0 120 90" xmlns="http://www.w3.org/2000/svg"><title>icon-target</title><g fill="#FFF"><path d="M67.155 57.954c4.667 1.834 7.605 4.367 7.666 6.61.028 1.022-.464 2.069-1.462 3.111-3.485 3.638-11.868 6.083-20.86 6.083-13.154 0-22.321-4.876-22.321-9.252 0-1.124.583-2.275 1.735-3.42 4.263-4.24 13.378-5.979 20.542-5.833a2.107 2.107 0 0 0 2.132-2.077c.024-1.17-.891-2.14-2.045-2.164-9.948-.213-18.972 2.488-23.552 7.043-1.956 1.946-2.99 4.176-2.99 6.45 0 3.916 2.972 7.457 8.367 9.97C39.246 76.749 45.685 78 52.5 78c10.362 0 19.503-2.823 23.855-7.367 1.789-1.868 2.703-4.007 2.643-6.186-.112-4.105-3.88-7.913-10.334-10.45a2.079 2.079 0 0 0-2.702 1.214c-.416 1.092.118 2.32 1.194 2.743z"/><path d="M110.85 21.666a2.091 2.091 0 0 0-1.888-1.305l-13.103-.336-.337-13.003a2.076 2.076 0 0 0-1.316-1.875 2.106 2.106 0 0 0-2.254.46L80.146 17.324a2.067 2.067 0 0 0-.612 1.522l.36 13.889-10.09 10.015c-5.42-1.213-11.326-1.856-17.425-1.856-11.346 0-22.047 2.208-30.13 6.217C13.706 51.348 9 57.15 9 63.447c0 6.297 4.705 12.099 13.25 16.336C30.332 83.793 41.033 86 52.38 86c11.346 0 22.046-2.208 30.129-6.217 8.544-4.237 13.25-10.039 13.25-16.336 0-6.297-4.706-12.099-13.25-16.336-2.451-1.216-5.146-2.263-8.023-3.137l9.002-8.934 10.98-10.898 9.517.244-7.727 7.668-5.527-.141a2.086 2.086 0 0 0-2.145 2.021 2.082 2.082 0 0 0 2.037 2.129l6.426.164.054.001a2.1 2.1 0 0 0 1.479-.608l11.806-11.716a2.065 2.065 0 0 0 .463-2.238zM91.576 63.447c0 9.975-17.95 18.401-39.196 18.401s-39.196-8.426-39.196-18.4c0-9.976 17.95-18.402 39.196-18.402 4.852 0 9.53.44 13.864 1.237L54.187 58.248l-.011.012c-.598-.048-1.2-.073-1.797-.073-4.931 0-10.239 1.646-10.239 5.26s5.308 5.26 10.24 5.26c4.931 0 10.239-1.646 10.239-5.26 0-1.907-1.479-3.265-3.6-4.124l12.06-11.967c12.101 3.174 20.496 9.27 20.496 16.091zm-33.494 0c-.871.496-2.867 1.109-5.702 1.109-2.834 0-4.83-.613-5.701-1.109.871-.496 2.867-1.109 5.701-1.109 2.835 0 4.83.613 5.702 1.11zM83.739 19.63l7.726-7.668.236 9.056-7.727 7.668-.235-9.056z"/></g></svg>