<svg width="120" height="90" viewBox="0 0 120 90" xmlns="http://www.w3.org/2000/svg"><title>icon-search</title><g fill="#FFF" fill-rule="evenodd"><path d="M43.195 43C35.92 43 30 49.314 30 57.075c0 1.063.808 1.925 1.805 1.925.997 0 1.805-.862 1.805-1.925 0-5.638 4.3-10.225 9.585-10.225.997 0 1.805-.862 1.805-1.925C45 43.862 44.192 43 43.195 43"/><path d="M55.93 69.023a17.003 17.003 0 0 1-12.103 5.013c-4.571 0-8.87-1.78-12.102-5.013a17.003 17.003 0 0 1-5.013-12.102 17 17 0 0 1 5.013-12.102 17.003 17.003 0 0 1 12.102-5.013c4.572 0 8.87 1.78 12.103 5.013a17.003 17.003 0 0 1 5.012 12.102c0 4.572-1.78 8.87-5.012 12.102zm6.602-2.93a20.741 20.741 0 0 0 2.122-9.172 20.692 20.692 0 0 0-6.1-14.727 20.692 20.692 0 0 0-14.727-6.1 20.692 20.692 0 0 0-14.727 6.1A20.691 20.691 0 0 0 23 56.921a20.692 20.692 0 0 0 6.1 14.727 20.692 20.692 0 0 0 14.727 6.1 20.692 20.692 0 0 0 14.727-6.1 21.148 21.148 0 0 0 1.988-2.297l11.783 11.784a2.96 2.96 0 0 1 .873 2.107c0 .796-.31 1.545-.874 2.109l-.068.068a2.984 2.984 0 0 1-4.215 0l-7.821-7.822a1.856 1.856 0 0 0-2.625 2.625l7.821 7.821A6.67 6.67 0 0 0 70.148 90a6.676 6.676 0 0 0 4.734-1.958l.067-.068a6.647 6.647 0 0 0 1.96-4.732 6.649 6.649 0 0 0-1.96-4.732L62.533 66.093z"/><path d="M96.154 0H37.846C36.826 0 36 .84 36 1.876v30.953c0 1.036.827 1.875 1.846 1.875 1.02 0 1.846-.84 1.846-1.875V3.752h54.616v55.496H68.617c-1.02 0-1.847.84-1.847 1.876S67.597 63 68.617 63h27.537c1.02 0 1.846-.84 1.846-1.876V1.876C98 .84 97.173 0 96.154 0"/><path d="M68.307 32.308H56.113V20.113h12.194v12.195zM47.692 11.692h4.729v4.729h-4.729v-4.729zM54.267 8h-8.42A1.846 1.846 0 0 0 44 9.846v8.421c0 1.02.827 1.846 1.846 1.846h6.575v14.04c0 1.02.827 1.847 1.846 1.847h15.887c1.02 0 1.846-.826 1.846-1.846V18.267c0-1.02-.827-1.846-1.846-1.846h-14.04V9.846c0-1.02-.827-1.846-1.847-1.846z"/><path d="M78.007 30.697h9.324v12.211h-9.324v-12.21zm-7.338 19.606h3.669v-3.697h-3.67v3.697zm3.669-7.395h-5.504A1.841 1.841 0 0 0 67 44.757v7.394A1.84 1.84 0 0 0 68.834 54h7.338a1.841 1.841 0 0 0 1.835-1.849v-5.545h11.159A1.841 1.841 0 0 0 91 44.756V28.85A1.841 1.841 0 0 0 89.166 27H76.172a1.842 1.842 0 0 0-1.834 1.849v14.06zm4.405-31.132h9.514v7.448h-9.514v-7.448zM76.872 23h13.256A1.88 1.88 0 0 0 92 21.112V9.888A1.88 1.88 0 0 0 90.128 8H76.872A1.88 1.88 0 0 0 75 9.888v11.224A1.88 1.88 0 0 0 76.872 23z"/></g></svg>